<mxfile host="Electron" agent="Mozilla/5.0 (Windows NT 10.0; Win64; x64) AppleWebKit/537.36 (KHTML, like Gecko) draw.io/26.1.1 Chrome/132.0.6834.210 Electron/34.3.3 Safari/537.36" version="26.1.1">
  <diagram name="бд" id="ctb7gI_ueX9C2qkwRM6h">
    <mxGraphModel dx="1877" dy="629" grid="0" gridSize="10" guides="1" tooltips="1" connect="1" arrows="1" fold="1" page="1" pageScale="1" pageWidth="827" pageHeight="1169" math="0" shadow="0">
      <root>
        <mxCell id="0" />
        <mxCell id="1" parent="0" />
        <mxCell id="aLCFNT-XdS_qPV-4GeK4-34" value="TeacherDTO" style="swimlane;childLayout=stackLayout;horizontal=1;startSize=50;horizontalStack=0;rounded=1;fontSize=15;fontStyle=0;strokeWidth=2;resizeParent=0;resizeLast=1;shadow=0;dashed=0;align=center;arcSize=4;whiteSpace=wrap;html=1;fontColor=default;" parent="1" vertex="1">
          <mxGeometry x="61" y="39" width="160" height="80" as="geometry" />
        </mxCell>
        <mxCell id="aLCFNT-XdS_qPV-4GeK4-35" value="+name" style="align=left;strokeColor=none;fillColor=none;spacingLeft=4;spacingRight=4;fontSize=15;verticalAlign=top;resizable=0;rotatable=0;part=1;html=1;whiteSpace=wrap;" parent="aLCFNT-XdS_qPV-4GeK4-34" vertex="1">
          <mxGeometry y="50" width="160" height="30" as="geometry" />
        </mxCell>
        <mxCell id="aLCFNT-XdS_qPV-4GeK4-36" value="GroupDTO" style="swimlane;childLayout=stackLayout;horizontal=1;startSize=50;horizontalStack=0;rounded=1;fontSize=15;fontStyle=0;strokeWidth=2;resizeParent=0;resizeLast=1;shadow=0;dashed=0;align=center;arcSize=4;whiteSpace=wrap;html=1;fontColor=default;" parent="1" vertex="1">
          <mxGeometry x="-160" y="27" width="160" height="100" as="geometry" />
        </mxCell>
        <mxCell id="aLCFNT-XdS_qPV-4GeK4-37" value="+course&lt;div&gt;+&lt;span style=&quot;background-color: transparent; color: light-dark(rgb(0, 0, 0), rgb(255, 255, 255));&quot;&gt;group&lt;/span&gt;&lt;/div&gt;" style="align=left;strokeColor=none;fillColor=none;spacingLeft=4;spacingRight=4;fontSize=15;verticalAlign=top;resizable=0;rotatable=0;part=1;html=1;whiteSpace=wrap;" parent="aLCFNT-XdS_qPV-4GeK4-36" vertex="1">
          <mxGeometry y="50" width="160" height="50" as="geometry" />
        </mxCell>
        <mxCell id="sVQ-PdgdpAy3A2vfllQu-1" value="LessonDTO" style="swimlane;childLayout=stackLayout;horizontal=1;startSize=50;horizontalStack=0;rounded=1;fontSize=15;fontStyle=0;strokeWidth=2;resizeParent=0;resizeLast=1;shadow=0;dashed=0;align=center;arcSize=4;whiteSpace=wrap;html=1;fontColor=default;" parent="1" vertex="1">
          <mxGeometry x="-268" y="150" width="268" height="334" as="geometry" />
        </mxCell>
        <mxCell id="sVQ-PdgdpAy3A2vfllQu-2" value="&lt;div&gt;+ id&amp;nbsp;&lt;/div&gt;&lt;div&gt;+ dayOfWeek&amp;nbsp;&amp;nbsp;&lt;/div&gt;&lt;div&gt;+ name&amp;nbsp;&amp;nbsp;&lt;/div&gt;&lt;div&gt;+ startTime&amp;nbsp;&amp;nbsp;&lt;/div&gt;&lt;div&gt;+ endTime&amp;nbsp;&amp;nbsp;&lt;/div&gt;&lt;div&gt;+ classroom&amp;nbsp;&amp;nbsp;&lt;/div&gt;&lt;div&gt;+ teacher&amp;nbsp;&amp;nbsp;&lt;/div&gt;&lt;div&gt;+ subGroup&amp;nbsp;&amp;nbsp;&lt;/div&gt;&lt;div&gt;+ groupId&amp;nbsp;&amp;nbsp;&lt;/div&gt;&lt;div&gt;+ frequency&amp;nbsp;&amp;nbsp;&lt;/div&gt;&lt;div&gt;+ idOfReminderBeforeLesson&amp;nbsp;&amp;nbsp;&lt;/div&gt;&lt;div&gt;+ idOfReminderAfterBeginningLesson&amp;nbsp;&amp;nbsp;&lt;/div&gt;&lt;div&gt;+ note&amp;nbsp;&amp;nbsp;&lt;/div&gt;&lt;div&gt;+ linkToCourse&amp;nbsp;&amp;nbsp;&lt;/div&gt;" style="align=left;strokeColor=none;fillColor=none;spacingLeft=4;spacingRight=4;fontSize=15;verticalAlign=top;resizable=0;rotatable=0;part=1;html=1;whiteSpace=wrap;" parent="sVQ-PdgdpAy3A2vfllQu-1" vertex="1">
          <mxGeometry y="50" width="268" height="284" as="geometry" />
        </mxCell>
      </root>
    </mxGraphModel>
  </diagram>
</mxfile>
